<?xml version="1.0" encoding="iso-8859-1"?>
<!-- Generator: Adobe Illustrator 16.0.0, SVG Export Plug-In . SVG Version: 6.00 Build 0)  -->
<!DOCTYPE svg PUBLIC "-//W3C//DTD SVG 1.1//EN" "http://www.w3.org/Graphics/SVG/1.1/DTD/svg11.dtd">
<svg version="1.1" id="Capa_1" xmlns="http://www.w3.org/2000/svg" xmlns:xlink="http://www.w3.org/1999/xlink" x="0px" y="0px"
	 width="468.071px" height="468.071px" viewBox="0 0 468.071 468.071" style="enable-background:new 0 0 468.071 468.071;"
	 xml:space="preserve">
<g>
	<path d="M428.874,82.099l-64.322-64.354c-23.689-23.66-62.104-23.66-85.795,0l-42.883,42.914
		c-23.692,23.662-23.692,62.072,0,85.765l21.438,21.443L21.43,403.75l21.441,21.436l42.881,42.886l19.163-19.163l-21.443-21.44
		l19.191-19.187l21.443,21.44l19.191-19.195l-42.884-42.877l178.343-178.345l21.441,21.443c23.689,23.692,62.1,23.692,85.79,0
		l42.886-42.886C452.563,144.171,452.563,105.761,428.874,82.099z M364.551,189.304c-11.845,11.82-31.063,11.848-42.918,0
		l-64.322-64.319c-11.812-11.85-11.812-31.097,0-42.886l42.887-42.883c11.812-11.845,31.063-11.845,42.881,0l64.35,64.326
		c11.821,11.817,11.821,31.036,0,42.881L364.551,189.304z"/>
</g>
<g>
</g>
<g>
</g>
<g>
</g>
<g>
</g>
<g>
</g>
<g>
</g>
<g>
</g>
<g>
</g>
<g>
</g>
<g>
</g>
<g>
</g>
<g>
</g>
<g>
</g>
<g>
</g>
<g>
</g>
</svg>
